<svg xmlns="http://www.w3.org/2000/svg" viewBox="0 0 130.26 131.21"><defs><style>.cls-1{fill:#ffffda;}.cls-2{fill:#d3d1c6;}.cls-3{fill:#9e9c95;}.cls-4{fill:#777572;}.cls-5{fill:#2f4e59;}</style></defs><title>CIRUGÍA MAXILOFACIAL</title><g id="Capa_12" data-name="Capa 12"><path class="cls-1" d="M34.83,56.3,26.32,66.56a8.16,8.16,0,0,1,.59,3.52c-.15,2.51-1.5,3.9-.88,4.69s2-.16,3.52.29c1.27.37,2.74,1.66,3.81,5.57L25.74,83l2.93,5.57a17.38,17.38,0,0,0-2.93,5.57,17.69,17.69,0,0,0-.29,9.38,11.86,11.86,0,0,0,3.81,12.32,9.54,9.54,0,0,0-3.23,5,8.74,8.74,0,0,0,.29,5.57c1.6,3.77,5.68,4.9,7,5.28a13.25,13.25,0,0,0,8.5-.59l34.9-10.85A10.52,10.52,0,0,0,82,116.7c1.44-1.9,1.56-3.68,2.06-11.15.41-6.25.64-9.42,1.46-11.72a17.61,17.61,0,0,1,4.11-6.75c1.18-1.16,4.52-4.46,7.62-3.52,1.62.5,2.49,2,3.23,3.23A15.86,15.86,0,0,1,102,97.64a11.42,11.42,0,0,0,13.49-2.35,34.59,34.59,0,0,1,9.38-1.76c4.08-.18,5.07.53,7.33.3,7.16-.74,11.85-9.33,13.49-12.32,3.62-6.62,4-12.7,4.4-19.94a47.82,47.82,0,0,0-.88-14.36,48.48,48.48,0,0,0-4.69-12,62.45,62.45,0,0,0-27.86-25.8c-10.28-4.24-19.13-4-27.85-3.81-5.91.15-13.58.4-22.87,3.81-9,3.31-14.89,7.88-20.23,12a46,46,0,0,0-8.21,7.92A47.53,47.53,0,0,0,34.25,34c-2,3.2-3.05,4.85-3.53,7.1a14.75,14.75,0,0,0,0,5.57A21.86,21.86,0,0,0,34.83,56.3Z" transform="translate(-22.64 -3.18)"/></g><g id="Capa_13" data-name="Capa 13"><path class="cls-2" d="M26.09,121.07c-.26,2-.48,3.59.41,4.7,1.28,1.6,4.17,1.25,5.93,1,9.43-1.25,14.15-1.87,16.15-2.45,18.61-5.4,20.65-3.77,25.15-8a28.21,28.21,0,0,0,6.54-9.81c3.19-7.66,1.51-12.69,5.53-17.38a15,15,0,0,1,7.36-4.5l-2.25-9.41c4.21-.42,10.51-1,18.2-1.63,17-1.36,19.8-1.12,22.69-3.68,6.85-6.08,5-20,1.64-28.42-6.13-15.17-21-21.32-27.81-24.13-5.5-2.27-17.41-7-32.51-3.89A59.83,59.83,0,0,0,42.24,33.14,42.59,42.59,0,0,0,35.7,44.59a15,15,0,0,0-1.43,7.16,13.53,13.53,0,0,0,1.22,4.7c-3,2.53-5.38,4.78-7.15,6.55-1.23,1.22-2.36,2.42-2.46,4.09-.07,1.31.57,1.7.41,3.06-.24,2.15-2,2.86-1.75,3.83.16.63,1.18,1.34,5.23,1.49l2.86,5.93L26.5,83.24l3.27,5.32a13.55,13.55,0,0,0-4.29,5.93,16.84,16.84,0,0,0-.41,8.58c.1.69.4,2,1,4.5,1.45,6,1.75,6.19,1.63,7.57C27.52,117.57,26.54,117.63,26.09,121.07Z" transform="translate(-22.64 -3.18)"/></g><g id="Capa_14" data-name="Capa 14"><path class="cls-3" d="M39.93,48.35c-1.16.55.1,2.53-1,8.1a89.79,89.79,0,0,0-2,11.45,4,4,0,0,0,.61,2.87c1.16,1.54,3.52,1.44,3.88,1.43,3.1-.13,5.15-2.73,5.73-3.48a12.44,12.44,0,0,0,2.25-9,14.61,14.61,0,0,0-6.6-10.61C41.88,48.56,40.79,47.94,39.93,48.35Z" transform="translate(-22.64 -3.18)"/><path class="cls-3" d="M36.72,55.64c-.66.43-8.22,5.46-9.2,10.63a39.47,39.47,0,0,0-.41,5.31c0,2.26-.06,3.39.21,3.48C27.92,75.27,30.07,71.68,36.72,55.64Z" transform="translate(-22.64 -3.18)"/><path class="cls-3" d="M46.33,90.8c-.38,1.28,1,2.79,1.43,3.28l7.77-.62,7.77-7.77a2.16,2.16,0,0,1,4.3-.41,9.2,9.2,0,0,0,4.9,2,10.08,10.08,0,0,0,6.44-1.89c1.6-1,3.84-2.37,3.71-4-.11-1.39-1.93-2.22-5.24-3.74-2.59-1.19-4-1.85-6.13-1.84A12.21,12.21,0,0,0,66,77.31a22,22,0,0,0-6.34,4.5,31.72,31.72,0,0,0-5.72,7.36C49.86,88.16,46.8,89.23,46.33,90.8Z" transform="translate(-22.64 -3.18)"/><path class="cls-3" d="M93.16,28c-.07.64-5.78-.84-13.5,1.23a33.41,33.41,0,0,0-15.54,9.61,15.6,15.6,0,0,0-3.88,6.75,14.27,14.27,0,0,0,0,6.74c.9,3.7,2.54,3.81,3.68,7.57.36,1.21,1.84,6.12-.61,8.35a5.36,5.36,0,0,1-4.1,1c-.23-1.4-.57-3.45-1-5.92-.71-3.93-1.07-5.89-1.43-7.16-1.47-5.19-2.82-5.14-3.27-8.59a14.85,14.85,0,0,1,1.23-8c1.47-3.2,3.72-4.87,6.54-7a35.59,35.59,0,0,1,11-5.31A36.15,36.15,0,0,1,80.68,26C87.29,25.69,93.22,27.38,93.16,28Z" transform="translate(-22.64 -3.18)"/><path class="cls-3" d="M26.91,121.27q17.62-1.89,17.58-2.86t-16-1Z" transform="translate(-22.64 -3.18)"/><path class="cls-4" d="M42.45,53.79c.84,3,1.4,5.05,1,7.77a11.12,11.12,0,0,1-2.66,6.34c-1.64,1.75-3.37,2.12-3.27,2.87.13,1,2.69,1.94,4.94,1.49,3.7-.74,5.45-5.09,5.9-6.2a14.55,14.55,0,0,0,.24-9.56c-2-6.61-8.07-10.66-8.83-10.07C39.33,46.8,41,48.73,42.45,53.79Z" transform="translate(-22.64 -3.18)"/><path class="cls-1" d="M25.79,98.55c-1,2.48-.79,4-.34,5a7.6,7.6,0,0,1,1,2.21,8.71,8.71,0,0,1-.16,2.69c-.26,2.39-.26,2.93-.05,3.58a2.8,2.8,0,0,0,.91,1.53c1.05.72,3.1,0,5-1.71a4.11,4.11,0,0,0,2.79,1.33,4.26,4.26,0,0,0,3.44-1.72,4.36,4.36,0,0,0,2.13,2,4.6,4.6,0,0,0,4.77-1.06,3.35,3.35,0,0,0,6-1.46,4.84,4.84,0,0,0,1.85.92,4.08,4.08,0,0,0,3.58-.53A3.85,3.85,0,0,0,58,108.36a4.52,4.52,0,0,0,2.52.4A4.65,4.65,0,0,0,63.44,107a4.77,4.77,0,0,0,0-5.3l-.39-4.64a5.18,5.18,0,0,0-2-1.46,3.68,3.68,0,0,0-5.44,2.78,4.65,4.65,0,0,0-2.78-.92A5,5,0,0,0,49,99.61a2.68,2.68,0,0,0-2.92-1.86,2.6,2.6,0,0,0-2,1.86,3.69,3.69,0,0,0-3.45-1.86,3.62,3.62,0,0,0-2.39,1.33,2.8,2.8,0,0,0-2.65-1.86,2.9,2.9,0,0,0-2.25,1.33,6.74,6.74,0,0,0-4.11-1.2A6.65,6.65,0,0,0,25.79,98.55Z" transform="translate(-22.64 -3.18)"/></g><g id="Capa_11" data-name="Capa 11"><path class="cls-5" d="M152.76,57.2a2.5,2.5,0,1,0-5,.35,48.76,48.76,0,0,1-.13,8.37,35.53,35.53,0,0,1-2.74,11.53,25.58,25.58,0,0,1-6.37,9.21c-2.39,2.15-5.36,4.81-9.39,5.09a10.33,10.33,0,0,1-2.36-.14,27,27,0,0,0-5.67-.28c-4.19.17-6.11.86-7.43,1.51a14.29,14.29,0,0,0-4.27,3.25l-5.11.08V88.83a7.31,7.31,0,0,0-1.75-5c-2.66-3-6.88-2.29-8.28-2.06A11.82,11.82,0,0,0,93,82V76.09a1.55,1.55,0,0,0,0-.31c.59-.07,1.19-.13,1.79-.15a1.5,1.5,0,0,0,0-3h0A21,21,0,0,0,84.57,75.5a19.5,19.5,0,0,0-2.94,2.11A15.07,15.07,0,0,0,76,75a15.87,15.87,0,0,0-7.67.29,20.43,20.43,0,0,0-8.77,4.83A14.34,14.34,0,0,0,58,82c-.46.57-1.12,1.4-2.31,2.81s-2.35,2.74-3.55,4.06l-5.74-.13a1.49,1.49,0,0,0-1.5,1.47,1.53,1.53,0,0,0,1.5,1.54l6.36.13h0a1.51,1.51,0,0,0,1.11-.48c1.37-1.51,2.75-3.07,4.09-4.66,1.22-1.44,1.89-2.29,2.36-2.88a10.37,10.37,0,0,1,1.29-1.46c.23-.22.47-.41.7-.61l.12,6.81a1.51,1.51,0,0,0,.68,1.22,7.74,7.74,0,0,1,2,1.87,9.06,9.06,0,0,1,1.52,5.67,13.27,13.27,0,0,1-1.57,6.11l0-1.38a1.43,1.43,0,0,0-.26-.82l0-4a1.42,1.42,0,0,0-.3-.91,5.63,5.63,0,0,0-9.33,0,5,5,0,0,0-2.6-.81,5.06,5.06,0,0,0-3.81,1.54,4.38,4.38,0,0,0-3-.77,4.2,4.2,0,0,0-2.26,1,4.5,4.5,0,0,0-3.26-1,4.22,4.22,0,0,0-2,.77A4.45,4.45,0,0,0,34.86,96a4.24,4.24,0,0,0-2.28,1,5,5,0,0,0-3-1,4.58,4.58,0,0,0-1.05.14c.19-.64.38-1.16.51-1.51a19,19,0,0,1,2.23-4.2,2.52,2.52,0,0,0,.11-2.69l-1.63-2.82,4.18-1.71a2.49,2.49,0,0,0,1.52-2.75c-.69-3.88-2.23-6.42-4.6-7.55a6.94,6.94,0,0,0-1.32-.46,5,5,0,0,0,.23-1.15,5.36,5.36,0,0,0-1.2-3.66l8.71-10.26a2.5,2.5,0,0,0,.23-2.91c-.36-.61-.89-1.49-1.49-2.59a28.63,28.63,0,0,1-2.44-4.92,8,8,0,0,1-.28-4.61,6.39,6.39,0,0,1,1-2,2.5,2.5,0,0,0-4-3,11.57,11.57,0,0,0-1.79,3.58,12.75,12.75,0,0,0,.28,7.41,30.4,30.4,0,0,0,2.87,6c.23.42.46.81.67,1.18l-9,10.65a2.5,2.5,0,0,0,.36,3.58,3.62,3.62,0,0,1,1.13,1.22,4.23,4.23,0,0,1-.3.42,3.62,3.62,0,0,0-.78,3.57c.72,1.89,2.63,2.1,3.65,2.21a4.74,4.74,0,0,1,1.38.28,3.3,3.3,0,0,1,1.34,2l-4.84,2a2.48,2.48,0,0,0-1.42,1.5,2.52,2.52,0,0,0,.2,2.06l2.31,4a23.89,23.89,0,0,0-1.92,3.94,20.79,20.79,0,0,0-1.42,6.33,19.76,19.76,0,0,0,.86,7,10.33,10.33,0,0,0-.42,4.51A10.53,10.53,0,0,0,25.75,116a15.19,15.19,0,0,0-2.14,4.06,10.6,10.6,0,0,0-.63,6.13A10.1,10.1,0,0,0,27,132c2.67,2,5.53,2.39,8.71,2.39,1,0,2,0,3.08-.08a44.81,44.81,0,0,0,10.35-1.63l.18-.05,27-9.73A13.23,13.23,0,0,0,83,119c.41-.46,1.66-1.87,3-6.54A38.43,38.43,0,0,0,88,99.77a28.42,28.42,0,0,0-.32-3.65,3.91,3.91,0,0,1,0-1.8,10.63,10.63,0,0,1,4-6.14,7.77,7.77,0,0,1,3.42-1.52c.8-.13,2.91-.48,3.74.45a2.56,2.56,0,0,1,.48,1.69v9.91a2.49,2.49,0,0,0,2.54,2.5l8.8-.14a2.47,2.47,0,0,0,1.94-1,9.43,9.43,0,0,1,3.32-2.77c.85-.42,2.16-.87,5.41-1a22.31,22.31,0,0,1,4.77.24,15.77,15.77,0,0,0,3.4.18c5.75-.39,9.75-4,12.4-6.36a30.57,30.57,0,0,0,7.59-10.9,40.25,40.25,0,0,0,3.14-13A52.71,52.71,0,0,0,152.76,57.2ZM75.37,78A12,12,0,0,1,80,80.13a4.39,4.39,0,0,1-2.74,2.76,5.56,5.56,0,0,1-5.44-2.17,4.63,4.63,0,0,1-.73-2.64,1.94,1.94,0,0,0,0-.24A11.75,11.75,0,0,1,75.37,78ZM58.89,106.23l0-1.32a.31.31,0,0,0,0-.1,4.12,4.12,0,0,1,1.89-1.11,4.25,4.25,0,0,1,1.33-.14l0,2.94a2,2,0,0,1-1.57.76A1.92,1.92,0,0,1,58.89,106.23Zm-3,3.14a2,2,0,0,1-1.57.76,2,2,0,0,1-1.65-1l0-1.91a1.6,1.6,0,0,0,.23-.38,2.88,2.88,0,0,1,1.33-1.46,2.76,2.76,0,0,1,1.63-.22Zm-6.19,1.72a1.92,1.92,0,0,1-1.57.76,1.94,1.94,0,0,1-1.63-1l0-3.19,3.19,0Zm-6.19,0a2,2,0,0,1-1.57.76,1.93,1.93,0,0,1-1.62-1l0-3.29,3.19,0Zm-6.19-.38a2,2,0,0,1-1.57.76,2,2,0,0,1-1.63-1l0-3,3.19.05Zm-6.19,0a2,2,0,0,1-1.57.76,1.94,1.94,0,0,1-1-.3,4.75,4.75,0,0,1-.31-1.18,5.49,5.49,0,0,1,.32-2.63l.57,0h.11l1.81,0Zm29-13.86a2.81,2.81,0,0,1,1.71.88l0,2.83a7.39,7.39,0,0,0-1.84.24,7.17,7.17,0,0,0-2.83,1.53l0-3.45v0A3.24,3.24,0,0,1,60.13,96.85Zm-7.6,1.68a2.19,2.19,0,0,1,1.46.65,1.38,1.38,0,0,0,.17.53l0,2.54a5.42,5.42,0,0,0-1.2.43,5.69,5.69,0,0,0-2.3,2.07H50.5a1,1,0,0,0,0-.24l.06-4.87h0A2.27,2.27,0,0,1,52.53,98.53Zm-6.38.75a1.57,1.57,0,0,1,1.43.72l0,4.48a1.64,1.64,0,0,0,0,.22l-2.56,0s0-.1,0-.15l.06-4.5A1.63,1.63,0,0,1,46.15,99.28Zm-5.52,0a1.59,1.59,0,0,1,1.43.72L42,104.48a.78.78,0,0,0,0,.14l-2.53,0a1.48,1.48,0,0,0,.07-.42l0-4.25A1.55,1.55,0,0,1,40.63,99.28Zm-5.45-.35a1.58,1.58,0,0,1,1.43.72l0,4.48a1.34,1.34,0,0,0,.06.4l-2.55,0a1.15,1.15,0,0,0,0-.33l.06-4.61A1.54,1.54,0,0,1,35.18,98.93Zm-5.58,0a2,2,0,0,1,1.57.76l-.06,4.43a1.75,1.75,0,0,0,0,.32l-1.72,0-.57,0a1.42,1.42,0,0,0-.36,0,14.79,14.79,0,0,1-.59-4.36A1.93,1.93,0,0,1,29.6,98.94Zm53.14-5.61a8.82,8.82,0,0,0,0,3.55,20.31,20.31,0,0,1,.27,3A33.73,33.73,0,0,1,81.26,111c-1,3.25-1.71,4.33-2,4.64a8.33,8.33,0,0,1-4.3,2.44l-.26.08-27,9.74a39.62,39.62,0,0,1-9.11,1.42c-4.16.16-6.61.18-8.6-1.32a5.26,5.26,0,0,1-2.14-2.89,6,6,0,0,1,.49-3.36,10.57,10.57,0,0,1,2.6-4.07,2.49,2.49,0,0,0,.13-3.42,5,5,0,0,0,1.67-.88,5,5,0,0,0,3,1.1h.08a5,5,0,0,0,2.86-.92,5,5,0,0,0,3.25,1.3H42a4.94,4.94,0,0,0,3.11-1.1,4.91,4.91,0,0,0,3,1.1h.08a4.93,4.93,0,0,0,4.1-2.2,4.75,4.75,0,0,0,2,.48h.08a4.91,4.91,0,0,0,4.36-2.63,1.47,1.47,0,0,0,.16-.54,5.31,5.31,0,0,0,.89.24l-1.25,1a33.69,33.69,0,0,1-11.5,6,1.5,1.5,0,0,0,.43,2.93,1.54,1.54,0,0,0,.43-.06,36.34,36.34,0,0,0,12.53-6.55,25.38,25.38,0,0,0,6.2-6.82,17.73,17.73,0,0,0,3-9.43,12,12,0,0,0-2.1-7.46,10.86,10.86,0,0,0-2.1-2.13l-.13-6.92A1.45,1.45,0,0,0,65,79.9a17.66,17.66,0,0,1,3.07-1.36,7.46,7.46,0,0,0,1.21,3.82,7.75,7.75,0,0,0,3.27,2.77,8.6,8.6,0,0,0,3.67.9,6.55,6.55,0,0,0,1.87-.26A7.56,7.56,0,0,0,83,80.4a16.92,16.92,0,0,1,7-4v6.91c-.53.31-.94.6-1.22.8A15.56,15.56,0,0,0,82.74,93.33Z" transform="translate(-22.64 -3.18)"/><path class="cls-5" d="M148.94,45A2.5,2.5,0,0,0,147,48l.7,3.49a2.5,2.5,0,0,0,2.45,2,2.72,2.72,0,0,0,.49-.05,2.5,2.5,0,0,0,2-2.94l-.7-3.49A2.5,2.5,0,0,0,148.94,45Z" transform="translate(-22.64 -3.18)"/><path class="cls-5" d="M34.25,34a2.5,2.5,0,0,0,3.5-.49A65.4,65.4,0,0,1,49.31,21.63,64.15,64.15,0,0,1,68.12,11.28c9.47-3.2,17.09-3.14,24.45-3.08s14.3.12,22.58,3.32a50.1,50.1,0,0,1,13.16,7.58,51.11,51.11,0,0,1,11.6,13.48A58.8,58.8,0,0,1,145,42.89a2.5,2.5,0,0,0,4.68-1.76,64.62,64.62,0,0,0-5.52-11.19,56.07,56.07,0,0,0-12.71-14.73A54.73,54.73,0,0,0,117,6.86c-9.13-3.53-16.52-3.59-24.35-3.66-7.41-.06-15.82-.13-26.1,3.34A70,70,0,0,0,33.76,30.45,2.48,2.48,0,0,0,34.25,34Z" transform="translate(-22.64 -3.18)"/><path class="cls-5" d="M64.33,32.68a32.4,32.4,0,0,1,15-5.09,31.4,31.4,0,0,1,12.91,1.72,29.09,29.09,0,0,1,7.43,4.12A1.5,1.5,0,1,0,101.46,31a32.28,32.28,0,0,0-8.2-4.54,33.77,33.77,0,0,0-14.19-1.9,35.66,35.66,0,0,0-16.31,5.52c-4,2.47-8.58,5.26-10.15,10.63a16.32,16.32,0,0,0-.47,6.33,13.85,13.85,0,0,0,1.44,4.66,27,27,0,0,1,1.67,4.5,35.34,35.34,0,0,1,1.08,5.9,41.81,41.81,0,0,1,.13,7.42,1.46,1.46,0,0,0,.39,1.11,1.44,1.44,0,0,0,1.07.49l25.28.56h0a1.47,1.47,0,0,0,.65-.15L94.51,66.4a1.5,1.5,0,1,0-1.32-2.69l-10.28,5L59.54,68.2a45.26,45.26,0,0,0-.23-6.38,38.42,38.42,0,0,0-1.16-6.38,29.29,29.29,0,0,0-1.85-4.95,11.27,11.27,0,0,1-1.18-3.77,13,13,0,0,1,.37-5.12C56.74,37.33,60.6,35,64.33,32.68Z" transform="translate(-22.64 -3.18)"/><path class="cls-5" d="M42.92,70.27c-.88.42-2.08,1-3.05.55a3.26,3.26,0,0,1-1.5-3,1.5,1.5,0,0,0-3,.05,6.16,6.16,0,0,0,3.24,5.67,4.78,4.78,0,0,0,2,.44,8.33,8.33,0,0,0,3.58-1,10.43,10.43,0,0,0,4.23-3.87,14.09,14.09,0,0,0,2.35-8.47c-.23-3.46-2-5.88-5.18-10.28C42.29,45.75,40.11,43,38,44c-1.6.76-1.49,3-.82,6.13a1.5,1.5,0,1,0,2.93-.62c-.15-.71-.24-1.27-.31-1.71,1.16,1.27,2.66,3.35,3.36,4.3,3,4.2,4.43,6.12,4.6,8.71A11,11,0,0,1,46,67.43,7.59,7.59,0,0,1,42.92,70.27Z" transform="translate(-22.64 -3.18)"/></g></svg>